<?xml version="1.0" encoding="UTF-8" standalone="no"?>
<!-- Created with Inkscape (http://www.inkscape.org/) -->

<svg
   width="206.56226mm"
   height="87.533966mm"
   viewBox="0 0 206.56226 87.533966"
   version="1.1"
   id="svg1"
   xmlns="http://www.w3.org/2000/svg"
   xmlns:svg="http://www.w3.org/2000/svg">
  <defs
     id="defs1" />
  <g
     id="layer1"
     transform="translate(-2.669745,-202.15496)">
    <g
       id="g9"
       transform="translate(6.8693878,-8.0816325)">
      <g
         id="g10"
         style="fill:#ff00ff"
         transform="translate(-31.922449,-52.732653)">
        <path
           style="opacity:0.922432;fill:#ff00ff;fill-opacity:1;stroke:#000000;stroke-width:0.0840835;stroke-dasharray:none;stroke-opacity:0"
           d="m 191.91135,349.6727 c -50.11742,0.0856 -130.382221,1.36672 -161.631434,0.47319 -4.021793,-0.115 -1.713777,-4.06707 -2.374413,-8.60646 -0.755614,-5.19195 1.841294,-6.16639 0.450904,-6.67526 15.512278,10.6536 29.517948,11.21375 52.472085,11.63569 5.146041,0.0946 100.088638,3.32714 120.666068,-0.44215 41.15485,-7.53858 27.852,-41.39975 25.41143,-65.24871 -1.46803,-14.34533 -0.87431,-6.85884 -1.76943,-15.60664 -0.2575,-2.51649 1.15876,-1.76942 3.72195,-1.97237 5.95184,-0.47126 4.93748,1.16259 4.63468,-0.08 -0.19249,-0.78987 1.37454,1.80142 0.46221,7.57102 0.49616,27.59818 -0.56167,72.35678 -0.56167,79.15462"
           id="path38" />
      </g>
    </g>
  </g>
</svg>
